<svg width="800" height="450" viewBox="0 0 800 450" fill="none" xmlns="http://www.w3.org/2000/svg">
<rect width="800" height="450" fill="white"/>
<g clip-path="url(#clip0_31_10)">
<path d="M355.574 239.754C354.9 238.271 356.393 238.115 356.721 238.279C356.896 238.366 365.651 240.687 374.426 241.393C382.143 242.015 388.728 241.528 390.656 241.557C393.552 241.601 395.738 238.333 395.738 236.967L397.049 209.098C397.049 208.006 397.41 205.623 398.852 204.836C400.295 204.049 400.984 206.366 401.148 207.623L401.803 236.967C401.84 238.009 402.144 240.185 405.574 240.246C427.049 239.59 441.803 233.361 442.951 233.033C444.098 232.705 448.852 233.525 444.262 237.623C439.279 240.77 414.208 247.568 402.295 250.574C402.896 265.656 404.164 296.672 404.426 300.082C404.688 303.492 406.066 304.781 406.721 305C400.164 305.109 387.639 305.262 390 305C391.705 304.344 392.022 302.869 391.967 302.213C392.732 290.301 394.426 263.295 395.082 250.574C379.442 248.363 369.461 246.334 363.607 244.344C357.74 242.35 356.015 240.725 355.574 239.754Z" fill="#012967" fill-opacity="0.8"/>
<path d="M378.077 145C366.009 155.219 377.423 172.103 384.307 171.721C389.17 166.585 394.733 154.049 378.077 145ZM374.605 233.83C390.149 236.736 396.034 217.223 391.391 212.126C384.337 211.599 371.104 215.201 374.605 233.83ZM345.065 273.063C360.642 270.337 359.317 250 353.183 246.853C346.391 248.83 335.259 256.841 345.065 273.063ZM347.391 224.774C347.801 208.966 327.603 206.242 323.305 211.633C323.9 218.682 329.55 231.178 347.391 224.774ZM441.138 246.334C430.94 258.42 445.009 273.167 451.732 271.644C455.672 265.769 459.069 252.481 441.138 246.334Z" fill="#0186D1" fill-opacity="0.8"/>
<path d="M427.109 250.486C411.876 254.737 415.204 274.844 421.619 277.369C428.182 274.731 438.469 265.66 427.109 250.486ZM370.801 278.951C383.841 270.006 374.193 252.053 367.306 251.737C361.948 256.356 355.146 268.264 370.801 278.951ZM327.033 251.234C341.987 256.378 350.657 237.933 346.808 232.213C339.907 230.662 326.29 232.293 327.033 251.234ZM349.875 209.499C362.004 199.352 350.69 182.4 343.804 182.741C338.91 187.848 333.273 200.35 349.875 209.499ZM377.969 184.446C364.814 193.222 351.739 177.588 354.008 171.077C360.288 167.822 373.873 165.938 377.969 184.446ZM404.745 173.389C418.565 165.701 410.637 146.926 403.81 145.967C398.044 150.064 390.158 161.284 404.745 173.389ZM399.055 199.99C411.184 189.844 399.87 172.892 392.985 173.232C388.091 178.34 382.453 190.842 399.055 199.99ZM429.843 231.067C434.087 215.833 415.158 208.277 409.678 212.461C408.54 219.442 410.981 232.938 429.843 231.067ZM439.319 225.754C454.575 221.593 451.366 201.467 444.965 198.904C438.387 201.504 428.048 210.514 439.319 225.754ZM457.666 215.119C473.168 211.995 471.322 191.698 465.109 188.71C458.37 190.861 447.447 199.154 457.666 215.119ZM453.372 178.784C441.909 167.89 426.357 181.064 427.481 187.866C433.113 192.145 446.177 196.32 453.372 178.784ZM429.983 197.983C421.134 184.877 403.111 194.392 402.744 201.277C407.322 206.669 419.18 213.559 429.983 197.983ZM390.924 200.968C386.679 185.734 366.57 189.056 364.043 195.47C366.679 202.034 375.747 212.323 390.924 200.968ZM362.492 206.901C376.15 214.872 367.835 233.48 360.989 234.297C355.309 230.082 347.657 218.7 362.492 206.901ZM451.773 239.434C449.762 255.119 469.579 259.878 474.402 254.95C474.525 247.878 470.171 234.873 451.773 239.434Z" fill="#012967" fill-opacity="0.8"/>
<path d="M451.123 227.048C457.17 212.436 476.733 218.153 478.47 224.825C475.064 231.024 464.824 240.147 451.123 227.048ZM432.639 157.812C416.9 156.276 412.743 176.228 417.814 180.9C424.887 180.809 437.754 176.064 432.639 157.812Z" fill="#0186D1" fill-opacity="0.8"/>
</g>
<defs>
<clipPath id="clip0_31_10">
<rect width="160" height="160.328" fill="white" transform="translate(320 145)"/>
</clipPath>
</defs>
</svg>
