<svg width="32" height="32" viewBox="0 0 32 32" fill="none" xmlns="http://www.w3.org/2000/svg">
<g clip-path="url(#clip0_33_2)">
<path d="M22.8517 9.208C24.793 9.208 26.333 9.796 27.4717 10.972C28.629 12.148 29.2077 13.7813 29.2077 15.872V25H24.4477V16.516C24.4477 15.508 24.177 14.7333 23.6357 14.192C23.113 13.632 22.385 13.352 21.4517 13.352C20.5184 13.352 19.781 13.632 19.2397 14.192C18.717 14.7333 18.4557 15.508 18.4557 16.516V25H13.6957V16.516C13.6957 15.508 13.425 14.7333 12.8837 14.192C12.361 13.632 11.633 13.352 10.6997 13.352C9.76635 13.352 9.02902 13.632 8.48769 14.192C7.96502 14.7333 7.70369 15.508 7.70369 16.516V25H2.91569V9.376H7.70369V11.336C8.18902 10.6827 8.82369 10.1693 9.60769 9.796C10.3917 9.404 11.2784 9.208 12.2677 9.208C13.4437 9.208 14.489 9.46 15.4037 9.964C16.337 10.468 17.065 11.1867 17.5877 12.12C18.129 11.2613 18.8664 10.5613 19.7997 10.02C20.733 9.47867 21.7504 9.208 22.8517 9.208Z" fill="#4338CA"/>
</g>
<defs>
<clipPath id="clip0_33_2">
<rect width="32" height="32" fill="white"/>
</clipPath>
</defs>
</svg>
