<svg width="32" height="32" viewBox="0 0 32 32" fill="none" xmlns="http://www.w3.org/2000/svg">
<g clip-path="url(#clip0_33_2)">
<path d="M23.8305 7.452C26.0492 7.452 27.8092 8.124 29.1105 9.468C30.4332 10.812 31.0945 12.6787 31.0945 15.068V25.5H25.6545V15.804C25.6545 14.652 25.3452 13.7667 24.7265 13.148C24.1292 12.508 23.2972 12.188 22.2305 12.188C21.1638 12.188 20.3212 12.508 19.7025 13.148C19.1052 13.7667 18.8065 14.652 18.8065 15.804V25.5H13.3665V15.804C13.3665 14.652 13.0572 13.7667 12.4385 13.148C11.8412 12.508 11.0092 12.188 9.9425 12.188C8.87583 12.188 8.03317 12.508 7.4145 13.148C6.81717 13.7667 6.5185 14.652 6.5185 15.804V25.5H1.0465V7.644H6.5185V9.884C7.07317 9.13733 7.7985 8.55067 8.6945 8.124C9.5905 7.676 10.6038 7.452 11.7345 7.452C13.0785 7.452 14.2732 7.74 15.3185 8.316C16.3852 8.892 17.2172 9.71333 17.8145 10.78C18.4332 9.79867 19.2758 8.99867 20.3425 8.38C21.4092 7.76133 22.5718 7.452 23.8305 7.452Z" fill="#4338CA"/>
</g>
<defs>
<clipPath id="clip0_33_2">
<rect width="32" height="32" fill="white"/>
</clipPath>
</defs>
</svg>
