<svg width="32" height="32" viewBox="0 0 32 32" fill="none" xmlns="http://www.w3.org/2000/svg">
<g clip-path="url(#clip0_33_2)">
<path d="M23.8305 7.952C26.0492 7.952 27.8092 8.624 29.1105 9.968C30.4332 11.312 31.0945 13.1787 31.0945 15.568V26H25.6545V16.304C25.6545 15.152 25.3452 14.2667 24.7265 13.648C24.1292 13.008 23.2972 12.688 22.2305 12.688C21.1638 12.688 20.3212 13.008 19.7025 13.648C19.1052 14.2667 18.8065 15.152 18.8065 16.304V26H13.3665V16.304C13.3665 15.152 13.0572 14.2667 12.4385 13.648C11.8412 13.008 11.0092 12.688 9.9425 12.688C8.87583 12.688 8.03317 13.008 7.4145 13.648C6.81717 14.2667 6.5185 15.152 6.5185 16.304V26H1.0465V8.144H6.5185V10.384C7.07317 9.63733 7.7985 9.05067 8.6945 8.624C9.5905 8.176 10.6038 7.952 11.7345 7.952C13.0785 7.952 14.2732 8.24 15.3185 8.816C16.3852 9.392 17.2172 10.2133 17.8145 11.28C18.4332 10.2987 19.2758 9.49867 20.3425 8.88C21.4092 8.26133 22.5718 7.952 23.8305 7.952Z" fill="#4338CA"/>
</g>
<defs>
<clipPath id="clip0_33_2">
<rect width="32" height="32" fill="white"/>
</clipPath>
</defs>
</svg>
