<svg width="140" height="40" viewBox="0 0 140 40" fill="none" xmlns="http://www.w3.org/2000/svg">
<path d="M19.6063 14.56C20.6463 14.56 21.5743 14.776 22.3903 15.208C23.2223 15.64 23.8703 16.28 24.3343 17.128C24.8143 17.976 25.0543 19 25.0543 20.2V28H22.3423V20.608C22.3423 19.424 22.0463 18.52 21.4543 17.896C20.8623 17.256 20.0543 16.936 19.0303 16.936C18.0063 16.936 17.1903 17.256 16.5823 17.896C15.9903 18.52 15.6943 19.424 15.6943 20.608V28H12.9823V20.608C12.9823 19.424 12.6863 18.52 12.0943 17.896C11.5023 17.256 10.6943 16.936 9.67028 16.936C8.64628 16.936 7.83028 17.256 7.22228 17.896C6.63028 18.52 6.33428 19.424 6.33428 20.608V28H3.59828V14.776H6.33428V16.288C6.78228 15.744 7.35028 15.32 8.03828 15.016C8.72628 14.712 9.46228 14.56 10.2463 14.56C11.3023 14.56 12.2463 14.784 13.0783 15.232C13.9103 15.68 14.5503 16.328 14.9983 17.176C15.3983 16.376 16.0223 15.744 16.8703 15.28C17.7183 14.8 18.6303 14.56 19.6063 14.56ZM38.5198 14.776L30.4078 34.216H27.5758L30.2638 27.784L25.0558 14.776H28.1038L31.8238 24.856L35.6878 14.776H38.5198ZM44.4005 28.216C43.1525 28.216 42.0245 27.936 41.0165 27.376C40.0085 26.8 39.2165 26 38.6405 24.976C38.0645 23.936 37.7765 22.736 37.7765 21.376C37.7765 20.032 38.0725 18.84 38.6645 17.8C39.2565 16.76 40.0645 15.96 41.0885 15.4C42.1125 14.84 43.2565 14.56 44.5205 14.56C45.7845 14.56 46.9285 14.84 47.9525 15.4C48.9765 15.96 49.7845 16.76 50.3765 17.8C50.9685 18.84 51.2645 20.032 51.2645 21.376C51.2645 22.72 50.9605 23.912 50.3525 24.952C49.7445 25.992 48.9125 26.8 47.8565 27.376C46.8165 27.936 45.6645 28.216 44.4005 28.216ZM44.4005 25.84C45.1045 25.84 45.7605 25.672 46.3685 25.336C46.9925 25 47.4965 24.496 47.8805 23.824C48.2645 23.152 48.4565 22.336 48.4565 21.376C48.4565 20.416 48.2725 19.608 47.9045 18.952C47.5365 18.28 47.0485 17.776 46.4405 17.44C45.8325 17.104 45.1765 16.936 44.4725 16.936C43.7685 16.936 43.1125 17.104 42.5045 17.44C41.9125 17.776 41.4405 18.28 41.0885 18.952C40.7365 19.608 40.5605 20.416 40.5605 21.376C40.5605 22.8 40.9205 23.904 41.6405 24.688C42.3765 25.456 43.2965 25.84 44.4005 25.84ZM58.7212 14.56C59.7612 14.56 60.6892 14.776 61.5052 15.208C62.3372 15.64 62.9852 16.28 63.4492 17.128C63.9132 17.976 64.1452 19 64.1452 20.2V28H61.4332V20.608C61.4332 19.424 61.1372 18.52 60.5452 17.896C59.9532 17.256 59.1452 16.936 58.1212 16.936C57.0972 16.936 56.2812 17.256 55.6732 17.896C55.0812 18.52 54.7852 19.424 54.7852 20.608V28H52.0492V14.776H54.7852V16.288C55.2332 15.744 55.8012 15.32 56.4892 15.016C57.1932 14.712 57.9372 14.56 58.7212 14.56ZM71.0432 14.56C72.0672 14.56 72.9712 14.768 73.7552 15.184C74.5552 15.584 75.1792 16.088 75.6272 16.696V14.776H78.3872V28.216C78.3872 29.432 78.1312 30.512 77.6192 31.456C77.1072 32.416 76.3632 33.168 75.3872 33.712C74.4272 34.256 73.2752 34.528 71.9312 34.528C70.1392 34.528 68.6512 34.104 67.4672 33.256C66.2832 32.424 65.6112 31.288 65.4512 29.848H68.1632C68.3712 30.536 68.8112 31.088 69.4832 31.504C70.1712 31.936 70.9872 32.152 71.9312 32.152C73.0352 32.152 73.9232 31.816 74.5952 31.144C75.2832 30.472 75.6272 29.496 75.6272 28.216V26.008C75.1632 26.632 74.5312 27.16 73.7312 27.592C72.9472 28.008 72.0512 28.216 71.0432 28.216C69.8912 28.216 68.8352 27.928 67.8752 27.352C66.9312 26.76 66.1792 25.944 65.6192 24.904C65.0752 23.848 64.8032 22.656 64.8032 21.328C64.8032 20 65.0752 18.824 65.6192 17.8C66.1792 16.776 66.9312 15.984 67.8752 15.424C68.8352 14.848 69.8912 14.56 71.0432 14.56ZM75.6272 21.376C75.6272 20.464 75.4352 19.672 75.0512 19C74.6832 18.328 74.1952 17.816 73.5872 17.464C72.9792 17.112 72.3232 16.936 71.6192 16.936C70.9152 16.936 70.2592 17.112 69.6512 17.464C69.0432 17.8 68.5472 18.304 68.1632 18.976C67.7952 19.632 67.6112 20.416 67.6112 21.328C67.6112 22.24 67.7952 23.04 68.1632 23.728C68.5472 24.416 69.0432 24.944 69.6512 25.312C70.2752 25.664 70.9312 25.84 71.6192 25.84C72.3232 25.84 72.9792 25.664 73.5872 25.312C74.1952 24.96 74.6832 24.448 75.0512 23.776C75.4352 23.088 75.6272 22.288 75.6272 21.376ZM81.4528 13.024C80.9568 13.024 80.5408 12.856 80.2048 12.52C79.8688 12.184 79.7008 11.768 79.7008 11.272C79.7008 10.776 79.8688 10.36 80.2048 10.024C80.5408 9.688 80.9568 9.52 81.4528 9.52C81.9328 9.52 82.3408 9.688 82.6768 10.024C83.0128 10.36 83.1808 10.776 83.1808 11.272C83.1808 11.768 83.0128 12.184 82.6768 12.52C82.3408 12.856 81.9328 13.024 81.4528 13.024ZM82.7968 30.592C82.7968 31.888 82.4688 32.824 81.8128 33.4C81.1728 33.992 80.2368 34.288 79.0048 34.288H77.5888V31.984H78.5248C79.0848 31.984 79.4768 31.872 79.7008 31.648C79.9408 31.44 80.0608 31.088 80.0608 30.592V14.776H82.7968V30.592ZM85.8609 13.024C85.3649 13.024 84.9489 12.856 84.6129 12.52C84.2769 12.184 84.1089 11.768 84.1089 11.272C84.1089 10.776 84.2769 10.36 84.6129 10.024C84.9489 9.688 85.3649 9.52 85.8609 9.52C86.3409 9.52 86.7489 9.688 87.0849 10.024C87.4209 10.36 87.5889 10.776 87.5889 11.272C87.5889 11.768 87.4209 12.184 87.0849 12.52C86.7489 12.856 86.3409 13.024 85.8609 13.024ZM87.2049 14.776V28H84.4689V14.776H87.2049ZM92.2794 21.376C92.2794 20.016 92.5514 18.824 93.0954 17.8C93.6554 16.76 94.4234 15.96 95.3994 15.4C96.3754 14.84 97.4954 14.56 98.7594 14.56C100.359 14.56 101.679 14.944 102.719 15.712C103.775 16.464 104.487 17.544 104.855 18.952H101.903C101.663 18.296 101.279 17.784 100.751 17.416C100.223 17.048 99.5594 16.864 98.7594 16.864C97.6394 16.864 96.7434 17.264 96.0714 18.064C95.4154 18.848 95.0874 19.952 95.0874 21.376C95.0874 22.8 95.4154 23.912 96.0714 24.712C96.7434 25.512 97.6394 25.912 98.7594 25.912C100.343 25.912 101.391 25.216 101.903 23.824H104.855C104.471 25.168 103.751 26.24 102.695 27.04C101.639 27.824 100.327 28.216 98.7594 28.216C97.4954 28.216 96.3754 27.936 95.3994 27.376C94.4234 26.8 93.6554 26 93.0954 24.976C92.5514 23.936 92.2794 22.736 92.2794 21.376ZM108.398 10.24V28H105.662V10.24H108.398ZM122.046 14.776V28H119.31V26.44C118.878 26.984 118.31 27.416 117.606 27.736C116.918 28.04 116.182 28.192 115.398 28.192C114.358 28.192 113.422 27.976 112.59 27.544C111.774 27.112 111.126 26.472 110.646 25.624C110.182 24.776 109.95 23.752 109.95 22.552V14.776H112.662V22.144C112.662 23.328 112.958 24.24 113.55 24.88C114.142 25.504 114.95 25.816 115.974 25.816C116.998 25.816 117.806 25.504 118.398 24.88C119.006 24.24 119.31 23.328 119.31 22.144V14.776H122.046ZM126.472 16.744C126.936 16.104 127.568 15.584 128.368 15.184C129.184 14.768 130.088 14.56 131.08 14.56C132.248 14.56 133.304 14.84 134.248 15.4C135.192 15.96 135.936 16.76 136.48 17.8C137.024 18.824 137.296 20 137.296 21.328C137.296 22.656 137.024 23.848 136.48 24.904C135.936 25.944 135.184 26.76 134.224 27.352C133.28 27.928 132.232 28.216 131.08 28.216C130.056 28.216 129.144 28.016 128.344 27.616C127.56 27.216 126.936 26.704 126.472 26.08V28H123.736V10.24H126.472V16.744ZM134.512 21.328C134.512 20.416 134.32 19.632 133.936 18.976C133.568 18.304 133.072 17.8 132.448 17.464C131.84 17.112 131.184 16.936 130.48 16.936C129.792 16.936 129.136 17.112 128.512 17.464C127.904 17.816 127.408 18.328 127.024 19C126.656 19.672 126.472 20.464 126.472 21.376C126.472 22.288 126.656 23.088 127.024 23.776C127.408 24.448 127.904 24.96 128.512 25.312C129.136 25.664 129.792 25.84 130.48 25.84C131.184 25.84 131.84 25.664 132.448 25.312C133.072 24.944 133.568 24.416 133.936 23.728C134.32 23.04 134.512 22.24 134.512 21.328Z" fill="#282828"/>
</svg>
