<svg width="141" height="40" viewBox="0 0 141 40" fill="none" xmlns="http://www.w3.org/2000/svg">
<g clip-path="url(#clip0_11_9)">
<g filter="url(#filter0_d_11_9)">
<path d="M19.668 14.512C21.3 14.512 22.612 15.016 23.604 16.024C24.612 17.016 25.116 18.408 25.116 20.2V28H21.756V20.656C21.756 19.616 21.492 18.824 20.964 18.28C20.436 17.72 19.716 17.44 18.804 17.44C17.892 17.44 17.164 17.72 16.62 18.28C16.092 18.824 15.828 19.616 15.828 20.656V28H12.468V20.656C12.468 19.616 12.204 18.824 11.676 18.28C11.148 17.72 10.428 17.44 9.516 17.44C8.588 17.44 7.852 17.72 7.308 18.28C6.78 18.824 6.516 19.616 6.516 20.656V28H3.156V14.704H6.516V16.312C6.948 15.752 7.5 15.312 8.172 14.992C8.86 14.672 9.612 14.512 10.428 14.512C11.468 14.512 12.396 14.736 13.212 15.184C14.028 15.616 14.66 16.24 15.108 17.056C15.54 16.288 16.164 15.672 16.98 15.208C17.812 14.744 18.708 14.512 19.668 14.512ZM39.1044 14.704L30.8724 34.288H27.2964L30.1764 27.664L24.8484 14.704H28.6164L32.0484 23.992L35.5284 14.704H39.1044ZM44.8997 28.216C43.6197 28.216 42.4677 27.936 41.4437 27.376C40.4197 26.8 39.6117 25.992 39.0197 24.952C38.4437 23.912 38.1557 22.712 38.1557 21.352C38.1557 19.992 38.4517 18.792 39.0437 17.752C39.6517 16.712 40.4757 15.912 41.5157 15.352C42.5557 14.776 43.7157 14.488 44.9957 14.488C46.2757 14.488 47.4357 14.776 48.4757 15.352C49.5157 15.912 50.3317 16.712 50.9237 17.752C51.5317 18.792 51.8357 19.992 51.8357 21.352C51.8357 22.712 51.5237 23.912 50.8997 24.952C50.2917 25.992 49.4597 26.8 48.4037 27.376C47.3637 27.936 46.1957 28.216 44.8997 28.216ZM44.8997 25.288C45.5077 25.288 46.0757 25.144 46.6037 24.856C47.1477 24.552 47.5797 24.104 47.8997 23.512C48.2197 22.92 48.3797 22.2 48.3797 21.352C48.3797 20.088 48.0437 19.12 47.3717 18.448C46.7157 17.76 45.9077 17.416 44.9477 17.416C43.9877 17.416 43.1797 17.76 42.5237 18.448C41.8837 19.12 41.5637 20.088 41.5637 21.352C41.5637 22.616 41.8757 23.592 42.4997 24.28C43.1397 24.952 43.9397 25.288 44.8997 25.288ZM59.7484 14.512C61.3324 14.512 62.6124 15.016 63.5884 16.024C64.5644 17.016 65.0524 18.408 65.0524 20.2V28H61.6924V20.656C61.6924 19.6 61.4284 18.792 60.9004 18.232C60.3724 17.656 59.6524 17.368 58.7404 17.368C57.8124 17.368 57.0764 17.656 56.5324 18.232C56.0044 18.792 55.7404 19.6 55.7404 20.656V28H52.3804V14.704H55.7404V16.36C56.1884 15.784 56.7564 15.336 57.4444 15.016C58.1484 14.68 58.9164 14.512 59.7484 14.512ZM71.5356 14.488C72.5276 14.488 73.3996 14.688 74.1516 15.088C74.9036 15.472 75.4956 15.976 75.9276 16.6V14.704H79.3116V28.096C79.3116 29.328 79.0636 30.424 78.5676 31.384C78.0716 32.36 77.3276 33.128 76.3356 33.688C75.3436 34.264 74.1436 34.552 72.7356 34.552C70.8476 34.552 69.2956 34.112 68.0796 33.232C66.8796 32.352 66.1996 31.152 66.0396 29.632H69.3756C69.5516 30.24 69.9276 30.72 70.5036 31.072C71.0956 31.44 71.8076 31.624 72.6396 31.624C73.6156 31.624 74.4076 31.328 75.0156 30.736C75.6236 30.16 75.9276 29.28 75.9276 28.096V26.032C75.4956 26.656 74.8956 27.176 74.1276 27.592C73.3756 28.008 72.5116 28.216 71.5356 28.216C70.4156 28.216 69.3916 27.928 68.4636 27.352C67.5356 26.776 66.7996 25.968 66.2556 24.928C65.7276 23.872 65.4636 22.664 65.4636 21.304C65.4636 19.96 65.7276 18.768 66.2556 17.728C66.7996 16.688 67.5276 15.888 68.4396 15.328C69.3676 14.768 70.3996 14.488 71.5356 14.488ZM75.9276 21.352C75.9276 20.536 75.7676 19.84 75.4476 19.264C75.1276 18.672 74.6956 18.224 74.1516 17.92C73.6076 17.6 73.0236 17.44 72.3996 17.44C71.7756 17.44 71.1996 17.592 70.6716 17.896C70.1436 18.2 69.7116 18.648 69.3756 19.24C69.0556 19.816 68.8956 20.504 68.8956 21.304C68.8956 22.104 69.0556 22.808 69.3756 23.416C69.7116 24.008 70.1436 24.464 70.6716 24.784C71.2156 25.104 71.7916 25.264 72.3996 25.264C73.0236 25.264 73.6076 25.112 74.1516 24.808C74.6956 24.488 75.1276 24.04 75.4476 23.464C75.7676 22.872 75.9276 22.168 75.9276 21.352ZM82.3772 13.12C81.7692 13.12 81.2652 12.936 80.8652 12.568C80.4812 12.184 80.2892 11.712 80.2892 11.152C80.2892 10.592 80.4812 10.128 80.8652 9.76C81.2652 9.376 81.7692 9.184 82.3772 9.184C82.9692 9.184 83.4572 9.376 83.8412 9.76C84.2252 10.128 84.4172 10.592 84.4172 11.152C84.4172 11.712 84.2252 12.184 83.8412 12.568C83.4572 12.936 82.9692 13.12 82.3772 13.12ZM84.0332 30.184C84.0332 31.656 83.6652 32.712 82.9292 33.352C82.2092 34.008 81.1692 34.336 79.8092 34.336H78.3212V31.48H79.2812C79.7932 31.48 80.1532 31.376 80.3612 31.168C80.5692 30.976 80.6732 30.656 80.6732 30.208V14.704H84.0332V30.184ZM87.1369 13.12C86.5449 13.12 86.0489 12.936 85.6489 12.568C85.2649 12.184 85.0729 11.712 85.0729 11.152C85.0729 10.592 85.2649 10.128 85.6489 9.76C86.0489 9.376 86.5449 9.184 87.1369 9.184C87.7289 9.184 88.2169 9.376 88.6009 9.76C89.0009 10.128 89.2009 10.592 89.2009 11.152C89.2009 11.712 89.0009 12.184 88.6009 12.568C88.2169 12.936 87.7289 13.12 87.1369 13.12ZM88.7929 14.704V28H85.4329V14.704H88.7929ZM93.1273 21.352C93.1273 19.976 93.4073 18.776 93.9673 17.752C94.5273 16.712 95.3033 15.912 96.2953 15.352C97.2873 14.776 98.4233 14.488 99.7033 14.488C101.351 14.488 102.711 14.904 103.783 15.736C104.871 16.552 105.599 17.704 105.967 19.192H102.343C102.151 18.616 101.823 18.168 101.359 17.848C100.911 17.512 100.351 17.344 99.6793 17.344C98.7193 17.344 97.9593 17.696 97.3993 18.4C96.8393 19.088 96.5593 20.072 96.5593 21.352C96.5593 22.616 96.8393 23.6 97.3993 24.304C97.9593 24.992 98.7193 25.336 99.6793 25.336C101.039 25.336 101.927 24.728 102.343 23.512H105.967C105.599 24.952 104.871 26.096 103.783 26.944C102.695 27.792 101.335 28.216 99.7033 28.216C98.4233 28.216 97.2873 27.936 96.2953 27.376C95.3033 26.8 94.5273 26 93.9673 24.976C93.4073 23.936 93.1273 22.728 93.1273 21.352ZM109.869 10.24V28H106.509V10.24H109.869ZM123.821 14.704V28H120.437V26.32C120.005 26.896 119.437 27.352 118.733 27.688C118.045 28.008 117.293 28.168 116.477 28.168C115.437 28.168 114.517 27.952 113.717 27.52C112.917 27.072 112.285 26.424 111.821 25.576C111.373 24.712 111.149 23.688 111.149 22.504V14.704H114.509V22.024C114.509 23.08 114.773 23.896 115.301 24.472C115.829 25.032 116.549 25.312 117.461 25.312C118.389 25.312 119.117 25.032 119.645 24.472C120.173 23.896 120.437 23.08 120.437 22.024V14.704H123.821ZM128.576 16.648C129.008 16.008 129.6 15.488 130.352 15.088C131.12 14.688 131.992 14.488 132.968 14.488C134.104 14.488 135.128 14.768 136.04 15.328C136.968 15.888 137.696 16.688 138.224 17.728C138.768 18.752 139.04 19.944 139.04 21.304C139.04 22.664 138.768 23.872 138.224 24.928C137.696 25.968 136.968 26.776 136.04 27.352C135.128 27.928 134.104 28.216 132.968 28.216C131.976 28.216 131.104 28.024 130.352 27.64C129.616 27.24 129.024 26.728 128.576 26.104V28H125.216V10.24H128.576V16.648ZM135.608 21.304C135.608 20.504 135.44 19.816 135.104 19.24C134.784 18.648 134.352 18.2 133.808 17.896C133.28 17.592 132.704 17.44 132.08 17.44C131.472 17.44 130.896 17.6 130.352 17.92C129.824 18.224 129.392 18.672 129.056 19.264C128.736 19.856 128.576 20.552 128.576 21.352C128.576 22.152 128.736 22.848 129.056 23.44C129.392 24.032 129.824 24.488 130.352 24.808C130.896 25.112 131.472 25.264 132.08 25.264C132.704 25.264 133.28 25.104 133.808 24.784C134.352 24.464 134.784 24.008 135.104 23.416C135.44 22.824 135.608 22.12 135.608 21.304Z" fill="#1F2937"/>
</g>
</g>
<defs>
<filter id="filter0_d_11_9" x="1.15601" y="8.184" width="139.884" height="29.368" filterUnits="userSpaceOnUse" color-interpolation-filters="sRGB">
<feFlood flood-opacity="0" result="BackgroundImageFix"/>
<feColorMatrix in="SourceAlpha" type="matrix" values="0 0 0 0 0 0 0 0 0 0 0 0 0 0 0 0 0 0 127 0" result="hardAlpha"/>
<feOffset dy="1"/>
<feGaussianBlur stdDeviation="1"/>
<feComposite in2="hardAlpha" operator="out"/>
<feColorMatrix type="matrix" values="0 0 0 0 0 0 0 0 0 0 0 0 0 0 0 0 0 0 0.15 0"/>
<feBlend mode="normal" in2="BackgroundImageFix" result="effect1_dropShadow_11_9"/>
<feBlend mode="normal" in="SourceGraphic" in2="effect1_dropShadow_11_9" result="shape"/>
</filter>
<clipPath id="clip0_11_9">
<rect width="140" height="40" fill="white" transform="translate(0.5)"/>
</clipPath>
</defs>
</svg>
