<svg width="760" height="160" viewBox="0 0 760 160" fill="none" xmlns="http://www.w3.org/2000/svg">
<g clip-path="url(#clip0_30_4)">
<g filter="url(#filter0_d_30_4)">
<path d="M107.896 43.064C116.6 43.064 123.597 45.752 128.888 51.128C134.264 56.4187 136.952 63.8427 136.952 73.4V115H119.032V75.832C119.032 70.2853 117.624 66.0613 114.808 63.16C111.992 60.1733 108.152 58.68 103.288 58.68C98.424 58.68 94.5413 60.1733 91.64 63.16C88.824 66.0613 87.416 70.2853 87.416 75.832V115H69.496V75.832C69.496 70.2853 68.088 66.0613 65.272 63.16C62.456 60.1733 58.616 58.68 53.752 58.68C48.8027 58.68 44.8773 60.1733 41.976 63.16C39.16 66.0613 37.752 70.2853 37.752 75.832V115H19.832V44.088H37.752V52.664C40.056 49.6773 43 47.3307 46.584 45.624C50.2533 43.9173 54.264 43.064 58.616 43.064C64.1627 43.064 69.112 44.2587 73.464 46.648C77.816 48.952 81.1867 52.28 83.576 56.632C85.88 52.536 89.208 49.2507 93.56 46.776C97.9973 44.3013 102.776 43.064 107.896 43.064ZM211.557 44.088L167.653 148.536H148.581L163.941 113.208L135.525 44.088H155.621L173.925 93.624L192.485 44.088H211.557ZM242.465 116.152C235.638 116.152 229.494 114.659 224.033 111.672C218.572 108.6 214.262 104.291 211.105 98.744C208.033 93.1973 206.497 86.7973 206.497 79.544C206.497 72.2907 208.076 65.8907 211.233 60.344C214.476 54.7973 218.87 50.5307 224.417 47.544C229.964 44.472 236.15 42.936 242.977 42.936C249.804 42.936 255.99 44.472 261.537 47.544C267.084 50.5307 271.436 54.7973 274.593 60.344C277.836 65.8907 279.457 72.2907 279.457 79.544C279.457 86.7973 277.793 93.1973 274.465 98.744C271.222 104.291 266.785 108.6 261.153 111.672C255.606 114.659 249.377 116.152 242.465 116.152ZM242.465 100.536C245.708 100.536 248.737 99.768 251.553 98.232C254.454 96.6107 256.758 94.2213 258.465 91.064C260.172 87.9067 261.025 84.0667 261.025 79.544C261.025 72.8027 259.233 67.64 255.649 64.056C252.15 60.3867 247.841 58.552 242.721 58.552C237.601 58.552 233.292 60.3867 229.793 64.056C226.38 67.64 224.673 72.8027 224.673 79.544C224.673 86.2853 226.337 91.4907 229.665 95.16C233.078 98.744 237.345 100.536 242.465 100.536ZM321.658 43.064C330.106 43.064 336.933 45.752 342.138 51.128C347.343 56.4187 349.946 63.8427 349.946 73.4V115H332.026V75.832C332.026 70.2 330.618 65.8907 327.802 62.904C324.986 59.832 321.146 58.296 316.282 58.296C311.333 58.296 307.407 59.832 304.506 62.904C301.69 65.8907 300.282 70.2 300.282 75.832V115H282.362V44.088H300.282V52.92C302.671 49.848 305.701 47.4587 309.37 45.752C313.125 43.96 317.221 43.064 321.658 43.064ZM384.523 42.936C389.814 42.936 394.464 44.0027 398.475 46.136C402.486 48.184 405.643 50.872 407.947 54.2V44.088H425.995V115.512C425.995 122.083 424.672 127.928 422.027 133.048C419.382 138.253 415.414 142.349 410.123 145.336C404.832 148.408 398.432 149.944 390.923 149.944C380.854 149.944 372.576 147.597 366.091 142.904C359.691 138.211 356.064 131.811 355.211 123.704H373.003C373.942 126.947 375.947 129.507 379.019 131.384C382.176 133.347 385.974 134.328 390.411 134.328C395.616 134.328 399.84 132.749 403.083 129.592C406.326 126.52 407.947 121.827 407.947 115.512V104.504C405.643 107.832 402.443 110.605 398.347 112.824C394.336 115.043 389.728 116.152 384.523 116.152C378.55 116.152 373.088 114.616 368.139 111.544C363.19 108.472 359.264 104.163 356.363 98.616C353.547 92.984 352.139 86.5413 352.139 79.288C352.139 72.12 353.547 65.7627 356.363 60.216C359.264 54.6693 363.147 50.4027 368.011 47.416C372.96 44.4293 378.464 42.936 384.523 42.936ZM407.947 79.544C407.947 75.192 407.094 71.48 405.387 68.408C403.68 65.2507 401.376 62.8613 398.475 61.24C395.574 59.5333 392.459 58.68 389.131 58.68C385.803 58.68 382.731 59.4907 379.915 61.112C377.099 62.7333 374.795 65.1227 373.003 68.28C371.296 71.352 370.443 75.0213 370.443 79.288C370.443 83.5547 371.296 87.3093 373.003 90.552C374.795 93.7093 377.099 96.1413 379.915 97.848C382.816 99.5547 385.888 100.408 389.131 100.408C392.459 100.408 395.574 99.5973 398.475 97.976C401.376 96.2693 403.68 93.88 405.387 90.808C407.094 87.6507 407.947 83.896 407.947 79.544ZM442.345 35.64C439.102 35.64 436.414 34.6587 434.281 32.696C432.233 30.648 431.209 28.1307 431.209 25.144C431.209 22.1573 432.233 19.6827 434.281 17.72C436.414 15.672 439.102 14.648 442.345 14.648C445.502 14.648 448.105 15.672 450.153 17.72C452.201 19.6827 453.225 22.1573 453.225 25.144C453.225 28.1307 452.201 30.648 450.153 32.696C448.105 34.6587 445.502 35.64 442.345 35.64ZM451.177 126.648C451.177 134.499 449.214 140.131 445.289 143.544C441.449 147.043 435.902 148.792 428.649 148.792H420.713V133.56H425.833C428.564 133.56 430.484 133.005 431.593 131.896C432.702 130.872 433.257 129.165 433.257 126.776V44.088H451.177V126.648ZM467.73 35.64C464.573 35.64 461.927 34.6587 459.794 32.696C457.746 30.648 456.722 28.1307 456.722 25.144C456.722 22.1573 457.746 19.6827 459.794 17.72C461.927 15.672 464.573 14.648 467.73 14.648C470.887 14.648 473.49 15.672 475.538 17.72C477.671 19.6827 478.738 22.1573 478.738 25.144C478.738 28.1307 477.671 30.648 475.538 32.696C473.49 34.6587 470.887 35.64 467.73 35.64ZM476.562 44.088V115H458.642V44.088H476.562ZM499.679 79.544C499.679 72.2053 501.172 65.8053 504.159 60.344C507.146 54.7973 511.284 50.5307 516.575 47.544C521.866 44.472 527.924 42.936 534.751 42.936C543.54 42.936 550.794 45.1547 556.511 49.592C562.314 53.944 566.196 60.088 568.159 68.024H548.831C547.807 64.952 546.058 62.5627 543.583 60.856C541.194 59.064 538.207 58.168 534.623 58.168C529.503 58.168 525.45 60.0453 522.463 63.8C519.476 67.4693 517.983 72.7173 517.983 79.544C517.983 86.2853 519.476 91.5333 522.463 95.288C525.45 98.9573 529.503 100.792 534.623 100.792C541.876 100.792 546.612 97.5493 548.831 91.064H568.159C566.196 98.744 562.314 104.845 556.511 109.368C550.708 113.891 543.455 116.152 534.751 116.152C527.924 116.152 521.866 114.659 516.575 111.672C511.284 108.6 507.146 104.333 504.159 98.872C501.172 93.3253 499.679 86.8827 499.679 79.544ZM588.967 20.28V115H571.047V20.28H588.967ZM663.376 44.088V115H645.328V106.04C643.024 109.112 639.995 111.544 636.24 113.336C632.571 115.043 628.56 115.896 624.208 115.896C618.661 115.896 613.755 114.744 609.488 112.44C605.221 110.051 601.851 106.595 599.376 102.072C596.987 97.464 595.792 92.0027 595.792 85.688V44.088H613.712V83.128C613.712 88.76 615.12 93.112 617.936 96.184C620.752 99.1707 624.592 100.664 629.456 100.664C634.405 100.664 638.288 99.1707 641.104 96.184C643.92 93.112 645.328 88.76 645.328 83.128V44.088H663.376ZM688.737 54.456C691.041 51.0427 694.198 48.2693 698.209 46.136C702.305 44.0027 706.956 42.936 712.161 42.936C718.22 42.936 723.681 44.4293 728.545 47.416C733.494 50.4027 737.377 54.6693 740.193 60.216C743.094 65.6773 744.545 72.0347 744.545 79.288C744.545 86.5413 743.094 92.984 740.193 98.616C737.377 104.163 733.494 108.472 728.545 111.544C723.681 114.616 718.22 116.152 712.161 116.152C706.87 116.152 702.22 115.128 698.209 113.08C694.284 110.947 691.126 108.216 688.737 104.888V115H670.817V20.28H688.737V54.456ZM726.241 79.288C726.241 75.0213 725.345 71.352 723.553 68.28C721.846 65.1227 719.542 62.7333 716.641 61.112C713.825 59.4907 710.753 58.68 707.425 58.68C704.182 58.68 701.11 59.5333 698.209 61.24C695.393 62.8613 693.089 65.2507 691.297 68.408C689.59 71.5653 688.737 75.2773 688.737 79.544C688.737 83.8107 689.59 87.5227 691.297 90.68C693.089 93.8373 695.393 96.2693 698.209 97.976C701.11 99.5973 704.182 100.408 707.425 100.408C710.753 100.408 713.825 99.5547 716.641 97.848C719.542 96.1413 721.846 93.7093 723.553 90.552C725.345 87.3947 726.241 83.64 726.241 79.288Z" fill="#282828"/>
</g>
</g>
<defs>
<filter id="filter0_d_30_4" x="17.832" y="13.648" width="728.713" height="139.296" filterUnits="userSpaceOnUse" color-interpolation-filters="sRGB">
<feFlood flood-opacity="0" result="BackgroundImageFix"/>
<feColorMatrix in="SourceAlpha" type="matrix" values="0 0 0 0 0 0 0 0 0 0 0 0 0 0 0 0 0 0 127 0" result="hardAlpha"/>
<feOffset dy="1"/>
<feGaussianBlur stdDeviation="1"/>
<feComposite in2="hardAlpha" operator="out"/>
<feColorMatrix type="matrix" values="0 0 0 0 0 0 0 0 0 0 0 0 0 0 0 0 0 0 0.15 0"/>
<feBlend mode="normal" in2="BackgroundImageFix" result="effect1_dropShadow_30_4"/>
<feBlend mode="normal" in="SourceGraphic" in2="effect1_dropShadow_30_4" result="shape"/>
</filter>
<clipPath id="clip0_30_4">
<rect width="760" height="160" fill="white"/>
</clipPath>
</defs>
</svg>
