<svg width="140" height="40" viewBox="0 0 140 40" fill="none" xmlns="http://www.w3.org/2000/svg">
<path d="M22.2463 14.56C23.2863 14.56 24.2143 14.776 25.0303 15.208C25.8623 15.64 26.5103 16.28 26.9743 17.128C27.4543 17.976 27.6943 19 27.6943 20.2V28H24.9823V20.608C24.9823 19.424 24.6863 18.52 24.0943 17.896C23.5023 17.256 22.6943 16.936 21.6703 16.936C20.6463 16.936 19.8303 17.256 19.2223 17.896C18.6303 18.52 18.3343 19.424 18.3343 20.608V28H15.6223V20.608C15.6223 19.424 15.3263 18.52 14.7343 17.896C14.1423 17.256 13.3343 16.936 12.3103 16.936C11.2863 16.936 10.4703 17.256 9.86228 17.896C9.27028 18.52 8.97428 19.424 8.97428 20.608V28H6.23828V14.776H8.97428V16.288C9.42228 15.744 9.99028 15.32 10.6783 15.016C11.3663 14.712 12.1023 14.56 12.8863 14.56C13.9423 14.56 14.8863 14.784 15.7183 15.232C16.5503 15.68 17.1903 16.328 17.6383 17.176C18.0383 16.376 18.6623 15.744 19.5103 15.28C20.3583 14.8 21.2703 14.56 22.2463 14.56ZM40.6798 14.776L32.5678 34.216H29.7358L32.4238 27.784L27.2158 14.776H30.2638L33.9838 24.856L37.8478 14.776H40.6798ZM46.0805 28.216C44.8325 28.216 43.7045 27.936 42.6965 27.376C41.6885 26.8 40.8965 26 40.3205 24.976C39.7445 23.936 39.4565 22.736 39.4565 21.376C39.4565 20.032 39.7525 18.84 40.3445 17.8C40.9365 16.76 41.7445 15.96 42.7685 15.4C43.7925 14.84 44.9365 14.56 46.2005 14.56C47.4645 14.56 48.6085 14.84 49.6325 15.4C50.6565 15.96 51.4645 16.76 52.0565 17.8C52.6485 18.84 52.9445 20.032 52.9445 21.376C52.9445 22.72 52.6405 23.912 52.0325 24.952C51.4245 25.992 50.5925 26.8 49.5365 27.376C48.4965 27.936 47.3445 28.216 46.0805 28.216ZM46.0805 25.84C46.7845 25.84 47.4405 25.672 48.0485 25.336C48.6725 25 49.1765 24.496 49.5605 23.824C49.9445 23.152 50.1365 22.336 50.1365 21.376C50.1365 20.416 49.9525 19.608 49.5845 18.952C49.2165 18.28 48.7285 17.776 48.1205 17.44C47.5125 17.104 46.8565 16.936 46.1525 16.936C45.4485 16.936 44.7925 17.104 44.1845 17.44C43.5925 17.776 43.1205 18.28 42.7685 18.952C42.4165 19.608 42.2405 20.416 42.2405 21.376C42.2405 22.8 42.6005 23.904 43.3205 24.688C44.0565 25.456 44.9765 25.84 46.0805 25.84ZM59.9212 14.56C60.9612 14.56 61.8892 14.776 62.7052 15.208C63.5372 15.64 64.1852 16.28 64.6492 17.128C65.1132 17.976 65.3452 19 65.3452 20.2V28H62.6332V20.608C62.6332 19.424 62.3372 18.52 61.7452 17.896C61.1532 17.256 60.3452 16.936 59.3212 16.936C58.2972 16.936 57.4812 17.256 56.8732 17.896C56.2812 18.52 55.9852 19.424 55.9852 20.608V28H53.2492V14.776H55.9852V16.288C56.4332 15.744 57.0012 15.32 57.6892 15.016C58.3932 14.712 59.1372 14.56 59.9212 14.56ZM71.7632 14.56C72.7872 14.56 73.6912 14.768 74.4752 15.184C75.2752 15.584 75.8992 16.088 76.3472 16.696V14.776H79.1072V28.216C79.1072 29.432 78.8512 30.512 78.3392 31.456C77.8272 32.416 77.0832 33.168 76.1072 33.712C75.1472 34.256 73.9952 34.528 72.6512 34.528C70.8592 34.528 69.3712 34.104 68.1872 33.256C67.0032 32.424 66.3312 31.288 66.1712 29.848H68.8832C69.0912 30.536 69.5312 31.088 70.2032 31.504C70.8912 31.936 71.7072 32.152 72.6512 32.152C73.7552 32.152 74.6432 31.816 75.3152 31.144C76.0032 30.472 76.3472 29.496 76.3472 28.216V26.008C75.8832 26.632 75.2512 27.16 74.4512 27.592C73.6672 28.008 72.7712 28.216 71.7632 28.216C70.6112 28.216 69.5552 27.928 68.5952 27.352C67.6512 26.76 66.8992 25.944 66.3392 24.904C65.7952 23.848 65.5232 22.656 65.5232 21.328C65.5232 20 65.7952 18.824 66.3392 17.8C66.8992 16.776 67.6512 15.984 68.5952 15.424C69.5552 14.848 70.6112 14.56 71.7632 14.56ZM76.3472 21.376C76.3472 20.464 76.1552 19.672 75.7712 19C75.4032 18.328 74.9152 17.816 74.3072 17.464C73.6992 17.112 73.0432 16.936 72.3392 16.936C71.6352 16.936 70.9792 17.112 70.3712 17.464C69.7632 17.8 69.2672 18.304 68.8832 18.976C68.5152 19.632 68.3312 20.416 68.3312 21.328C68.3312 22.24 68.5152 23.04 68.8832 23.728C69.2672 24.416 69.7632 24.944 70.3712 25.312C70.9952 25.664 71.6512 25.84 72.3392 25.84C73.0432 25.84 73.6992 25.664 74.3072 25.312C74.9152 24.96 75.4032 24.448 75.7712 23.776C76.1552 23.088 76.3472 22.288 76.3472 21.376ZM81.6928 13.024C81.1968 13.024 80.7808 12.856 80.4448 12.52C80.1088 12.184 79.9408 11.768 79.9408 11.272C79.9408 10.776 80.1088 10.36 80.4448 10.024C80.7808 9.688 81.1968 9.52 81.6928 9.52C82.1728 9.52 82.5808 9.688 82.9168 10.024C83.2528 10.36 83.4208 10.776 83.4208 11.272C83.4208 11.768 83.2528 12.184 82.9168 12.52C82.5808 12.856 82.1728 13.024 81.6928 13.024ZM83.0368 30.592C83.0368 31.888 82.7088 32.824 82.0528 33.4C81.4128 33.992 80.4768 34.288 79.2448 34.288H77.8288V31.984H78.7648C79.3248 31.984 79.7168 31.872 79.9408 31.648C80.1808 31.44 80.3008 31.088 80.3008 30.592V14.776H83.0368V30.592ZM85.6209 13.024C85.1249 13.024 84.7089 12.856 84.3729 12.52C84.0369 12.184 83.8689 11.768 83.8689 11.272C83.8689 10.776 84.0369 10.36 84.3729 10.024C84.7089 9.688 85.1249 9.52 85.6209 9.52C86.1009 9.52 86.5089 9.688 86.8449 10.024C87.1809 10.36 87.3489 10.776 87.3489 11.272C87.3489 11.768 87.1809 12.184 86.8449 12.52C86.5089 12.856 86.1009 13.024 85.6209 13.024ZM86.9649 14.776V28H84.2289V14.776H86.9649ZM91.0794 21.376C91.0794 20.016 91.3514 18.824 91.8954 17.8C92.4554 16.76 93.2234 15.96 94.1994 15.4C95.1754 14.84 96.2954 14.56 97.5594 14.56C99.1594 14.56 100.479 14.944 101.519 15.712C102.575 16.464 103.287 17.544 103.655 18.952H100.703C100.463 18.296 100.079 17.784 99.5514 17.416C99.0234 17.048 98.3594 16.864 97.5594 16.864C96.4394 16.864 95.5434 17.264 94.8714 18.064C94.2154 18.848 93.8874 19.952 93.8874 21.376C93.8874 22.8 94.2154 23.912 94.8714 24.712C95.5434 25.512 96.4394 25.912 97.5594 25.912C99.1434 25.912 100.191 25.216 100.703 23.824H103.655C103.271 25.168 102.551 26.24 101.495 27.04C100.439 27.824 99.1274 28.216 97.5594 28.216C96.2954 28.216 95.1754 27.936 94.1994 27.376C93.2234 26.8 92.4554 26 91.8954 24.976C91.3514 23.936 91.0794 22.736 91.0794 21.376ZM106.718 10.24V28H103.982V10.24H106.718ZM119.886 14.776V28H117.15V26.44C116.718 26.984 116.15 27.416 115.446 27.736C114.758 28.04 114.022 28.192 113.238 28.192C112.198 28.192 111.262 27.976 110.43 27.544C109.614 27.112 108.966 26.472 108.486 25.624C108.022 24.776 107.79 23.752 107.79 22.552V14.776H110.502V22.144C110.502 23.328 110.798 24.24 111.39 24.88C111.982 25.504 112.79 25.816 113.814 25.816C114.838 25.816 115.646 25.504 116.238 24.88C116.846 24.24 117.15 23.328 117.15 22.144V14.776H119.886ZM123.832 16.744C124.296 16.104 124.928 15.584 125.728 15.184C126.544 14.768 127.448 14.56 128.44 14.56C129.608 14.56 130.664 14.84 131.608 15.4C132.552 15.96 133.296 16.76 133.84 17.8C134.384 18.824 134.656 20 134.656 21.328C134.656 22.656 134.384 23.848 133.84 24.904C133.296 25.944 132.544 26.76 131.584 27.352C130.64 27.928 129.592 28.216 128.44 28.216C127.416 28.216 126.504 28.016 125.704 27.616C124.92 27.216 124.296 26.704 123.832 26.08V28H121.096V10.24H123.832V16.744ZM131.872 21.328C131.872 20.416 131.68 19.632 131.296 18.976C130.928 18.304 130.432 17.8 129.808 17.464C129.2 17.112 128.544 16.936 127.84 16.936C127.152 16.936 126.496 17.112 125.872 17.464C125.264 17.816 124.768 18.328 124.384 19C124.016 19.672 123.832 20.464 123.832 21.376C123.832 22.288 124.016 23.088 124.384 23.776C124.768 24.448 125.264 24.96 125.872 25.312C126.496 25.664 127.152 25.84 127.84 25.84C128.544 25.84 129.2 25.664 129.808 25.312C130.432 24.944 130.928 24.416 131.296 23.728C131.68 23.04 131.872 22.24 131.872 21.328Z" fill="#282828"/>
</svg>
