<svg width="140" height="40" viewBox="0 0 140 40" fill="none" xmlns="http://www.w3.org/2000/svg">
<g clip-path="url(#clip0_11_9)">
<g filter="url(#filter0_d_11_9)">
<path d="M19.168 14.512C20.8 14.512 22.112 15.016 23.104 16.024C24.112 17.016 24.616 18.408 24.616 20.2V28H21.256V20.656C21.256 19.616 20.992 18.824 20.464 18.28C19.936 17.72 19.216 17.44 18.304 17.44C17.392 17.44 16.664 17.72 16.12 18.28C15.592 18.824 15.328 19.616 15.328 20.656V28H11.968V20.656C11.968 19.616 11.704 18.824 11.176 18.28C10.648 17.72 9.928 17.44 9.016 17.44C8.088 17.44 7.352 17.72 6.808 18.28C6.28 18.824 6.016 19.616 6.016 20.656V28H2.656V14.704H6.016V16.312C6.448 15.752 7 15.312 7.672 14.992C8.36 14.672 9.112 14.512 9.928 14.512C10.968 14.512 11.896 14.736 12.712 15.184C13.528 15.616 14.16 16.24 14.608 17.056C15.04 16.288 15.664 15.672 16.48 15.208C17.312 14.744 18.208 14.512 19.168 14.512ZM38.6044 14.704L30.3724 34.288H26.7964L29.6764 27.664L24.3484 14.704H28.1164L31.5484 23.992L35.0284 14.704H38.6044ZM44.3997 28.216C43.1197 28.216 41.9677 27.936 40.9437 27.376C39.9197 26.8 39.1117 25.992 38.5197 24.952C37.9437 23.912 37.6557 22.712 37.6557 21.352C37.6557 19.992 37.9517 18.792 38.5437 17.752C39.1517 16.712 39.9757 15.912 41.0157 15.352C42.0557 14.776 43.2157 14.488 44.4957 14.488C45.7757 14.488 46.9357 14.776 47.9757 15.352C49.0157 15.912 49.8317 16.712 50.4237 17.752C51.0317 18.792 51.3357 19.992 51.3357 21.352C51.3357 22.712 51.0237 23.912 50.3997 24.952C49.7917 25.992 48.9597 26.8 47.9037 27.376C46.8637 27.936 45.6957 28.216 44.3997 28.216ZM44.3997 25.288C45.0077 25.288 45.5757 25.144 46.1037 24.856C46.6477 24.552 47.0797 24.104 47.3997 23.512C47.7197 22.92 47.8797 22.2 47.8797 21.352C47.8797 20.088 47.5437 19.12 46.8717 18.448C46.2157 17.76 45.4077 17.416 44.4477 17.416C43.4877 17.416 42.6797 17.76 42.0237 18.448C41.3837 19.12 41.0637 20.088 41.0637 21.352C41.0637 22.616 41.3757 23.592 41.9997 24.28C42.6397 24.952 43.4397 25.288 44.3997 25.288ZM59.2484 14.512C60.8324 14.512 62.1124 15.016 63.0884 16.024C64.0644 17.016 64.5524 18.408 64.5524 20.2V28H61.1924V20.656C61.1924 19.6 60.9284 18.792 60.4004 18.232C59.8724 17.656 59.1524 17.368 58.2404 17.368C57.3124 17.368 56.5764 17.656 56.0324 18.232C55.5044 18.792 55.2404 19.6 55.2404 20.656V28H51.8804V14.704H55.2404V16.36C55.6884 15.784 56.2564 15.336 56.9444 15.016C57.6484 14.68 58.4164 14.512 59.2484 14.512ZM71.0356 14.488C72.0276 14.488 72.8996 14.688 73.6516 15.088C74.4036 15.472 74.9956 15.976 75.4276 16.6V14.704H78.8116V28.096C78.8116 29.328 78.5636 30.424 78.0676 31.384C77.5716 32.36 76.8276 33.128 75.8356 33.688C74.8436 34.264 73.6436 34.552 72.2356 34.552C70.3476 34.552 68.7956 34.112 67.5796 33.232C66.3796 32.352 65.6996 31.152 65.5396 29.632H68.8756C69.0516 30.24 69.4276 30.72 70.0036 31.072C70.5956 31.44 71.3076 31.624 72.1396 31.624C73.1156 31.624 73.9076 31.328 74.5156 30.736C75.1236 30.16 75.4276 29.28 75.4276 28.096V26.032C74.9956 26.656 74.3956 27.176 73.6276 27.592C72.8756 28.008 72.0116 28.216 71.0356 28.216C69.9156 28.216 68.8916 27.928 67.9636 27.352C67.0356 26.776 66.2996 25.968 65.7556 24.928C65.2276 23.872 64.9636 22.664 64.9636 21.304C64.9636 19.96 65.2276 18.768 65.7556 17.728C66.2996 16.688 67.0276 15.888 67.9396 15.328C68.8676 14.768 69.8996 14.488 71.0356 14.488ZM75.4276 21.352C75.4276 20.536 75.2676 19.84 74.9476 19.264C74.6276 18.672 74.1956 18.224 73.6516 17.92C73.1076 17.6 72.5236 17.44 71.8996 17.44C71.2756 17.44 70.6996 17.592 70.1716 17.896C69.6436 18.2 69.2116 18.648 68.8756 19.24C68.5556 19.816 68.3956 20.504 68.3956 21.304C68.3956 22.104 68.5556 22.808 68.8756 23.416C69.2116 24.008 69.6436 24.464 70.1716 24.784C70.7156 25.104 71.2916 25.264 71.8996 25.264C72.5236 25.264 73.1076 25.112 73.6516 24.808C74.1956 24.488 74.6276 24.04 74.9476 23.464C75.2676 22.872 75.4276 22.168 75.4276 21.352ZM81.8772 13.12C81.2692 13.12 80.7652 12.936 80.3652 12.568C79.9812 12.184 79.7892 11.712 79.7892 11.152C79.7892 10.592 79.9812 10.128 80.3652 9.76C80.7652 9.376 81.2692 9.184 81.8772 9.184C82.4692 9.184 82.9572 9.376 83.3412 9.76C83.7252 10.128 83.9172 10.592 83.9172 11.152C83.9172 11.712 83.7252 12.184 83.3412 12.568C82.9572 12.936 82.4692 13.12 81.8772 13.12ZM83.5332 30.184C83.5332 31.656 83.1652 32.712 82.4292 33.352C81.7092 34.008 80.6692 34.336 79.3092 34.336H77.8212V31.48H78.7812C79.2932 31.48 79.6532 31.376 79.8612 31.168C80.0692 30.976 80.1732 30.656 80.1732 30.208V14.704H83.5332V30.184ZM86.6369 13.12C86.0449 13.12 85.5489 12.936 85.1489 12.568C84.7649 12.184 84.5729 11.712 84.5729 11.152C84.5729 10.592 84.7649 10.128 85.1489 9.76C85.5489 9.376 86.0449 9.184 86.6369 9.184C87.2289 9.184 87.7169 9.376 88.1009 9.76C88.5009 10.128 88.7009 10.592 88.7009 11.152C88.7009 11.712 88.5009 12.184 88.1009 12.568C87.7169 12.936 87.2289 13.12 86.6369 13.12ZM88.2929 14.704V28H84.9329V14.704H88.2929ZM92.6273 21.352C92.6273 19.976 92.9073 18.776 93.4673 17.752C94.0273 16.712 94.8033 15.912 95.7953 15.352C96.7873 14.776 97.9233 14.488 99.2033 14.488C100.851 14.488 102.211 14.904 103.283 15.736C104.371 16.552 105.099 17.704 105.467 19.192H101.843C101.651 18.616 101.323 18.168 100.859 17.848C100.411 17.512 99.8513 17.344 99.1793 17.344C98.2193 17.344 97.4593 17.696 96.8993 18.4C96.3393 19.088 96.0593 20.072 96.0593 21.352C96.0593 22.616 96.3393 23.6 96.8993 24.304C97.4593 24.992 98.2193 25.336 99.1793 25.336C100.539 25.336 101.427 24.728 101.843 23.512H105.467C105.099 24.952 104.371 26.096 103.283 26.944C102.195 27.792 100.835 28.216 99.2033 28.216C97.9233 28.216 96.7873 27.936 95.7953 27.376C94.8033 26.8 94.0273 26 93.4673 24.976C92.9073 23.936 92.6273 22.728 92.6273 21.352ZM109.369 10.24V28H106.009V10.24H109.369ZM123.321 14.704V28H119.937V26.32C119.505 26.896 118.937 27.352 118.233 27.688C117.545 28.008 116.793 28.168 115.977 28.168C114.937 28.168 114.017 27.952 113.217 27.52C112.417 27.072 111.785 26.424 111.321 25.576C110.873 24.712 110.649 23.688 110.649 22.504V14.704H114.009V22.024C114.009 23.08 114.273 23.896 114.801 24.472C115.329 25.032 116.049 25.312 116.961 25.312C117.889 25.312 118.617 25.032 119.145 24.472C119.673 23.896 119.937 23.08 119.937 22.024V14.704H123.321ZM128.076 16.648C128.508 16.008 129.1 15.488 129.852 15.088C130.62 14.688 131.492 14.488 132.468 14.488C133.604 14.488 134.628 14.768 135.54 15.328C136.468 15.888 137.196 16.688 137.724 17.728C138.268 18.752 138.54 19.944 138.54 21.304C138.54 22.664 138.268 23.872 137.724 24.928C137.196 25.968 136.468 26.776 135.54 27.352C134.628 27.928 133.604 28.216 132.468 28.216C131.476 28.216 130.604 28.024 129.852 27.64C129.116 27.24 128.524 26.728 128.076 26.104V28H124.716V10.24H128.076V16.648ZM135.108 21.304C135.108 20.504 134.94 19.816 134.604 19.24C134.284 18.648 133.852 18.2 133.308 17.896C132.78 17.592 132.204 17.44 131.58 17.44C130.972 17.44 130.396 17.6 129.852 17.92C129.324 18.224 128.892 18.672 128.556 19.264C128.236 19.856 128.076 20.552 128.076 21.352C128.076 22.152 128.236 22.848 128.556 23.44C128.892 24.032 129.324 24.488 129.852 24.808C130.396 25.112 130.972 25.264 131.58 25.264C132.204 25.264 132.78 25.104 133.308 24.784C133.852 24.464 134.284 24.008 134.604 23.416C134.94 22.824 135.108 22.12 135.108 21.304Z" fill="#282828"/>
</g>
</g>
<defs>
<filter id="filter0_d_11_9" x="0.656006" y="8.184" width="139.884" height="29.368" filterUnits="userSpaceOnUse" color-interpolation-filters="sRGB">
<feFlood flood-opacity="0" result="BackgroundImageFix"/>
<feColorMatrix in="SourceAlpha" type="matrix" values="0 0 0 0 0 0 0 0 0 0 0 0 0 0 0 0 0 0 127 0" result="hardAlpha"/>
<feOffset dy="1"/>
<feGaussianBlur stdDeviation="1"/>
<feComposite in2="hardAlpha" operator="out"/>
<feColorMatrix type="matrix" values="0 0 0 0 0 0 0 0 0 0 0 0 0 0 0 0 0 0 0.15 0"/>
<feBlend mode="normal" in2="BackgroundImageFix" result="effect1_dropShadow_11_9"/>
<feBlend mode="normal" in="SourceGraphic" in2="effect1_dropShadow_11_9" result="shape"/>
</filter>
<clipPath id="clip0_11_9">
<rect width="140" height="40" fill="white"/>
</clipPath>
</defs>
</svg>
