<svg width="140" height="40" viewBox="0 0 140 40" fill="none" xmlns="http://www.w3.org/2000/svg">
<g filter="url(#filter0_d_13_2)">
<path d="M21.168 14.512C22.8 14.512 24.112 15.016 25.104 16.024C26.112 17.016 26.616 18.408 26.616 20.2V28H23.256V20.656C23.256 19.616 22.992 18.824 22.464 18.28C21.936 17.72 21.216 17.44 20.304 17.44C19.392 17.44 18.664 17.72 18.12 18.28C17.592 18.824 17.328 19.616 17.328 20.656V28H13.968V20.656C13.968 19.616 13.704 18.824 13.176 18.28C12.648 17.72 11.928 17.44 11.016 17.44C10.088 17.44 9.352 17.72 8.808 18.28C8.28 18.824 8.016 19.616 8.016 20.656V28H4.656V14.704H8.016V16.312C8.448 15.752 9 15.312 9.672 14.992C10.36 14.672 11.112 14.512 11.928 14.512C12.968 14.512 13.896 14.736 14.712 15.184C15.528 15.616 16.16 16.24 16.608 17.056C17.04 16.288 17.664 15.672 18.48 15.208C19.312 14.744 20.208 14.512 21.168 14.512ZM40.1244 14.704L31.8924 34.288H28.3164L31.1964 27.664L25.8684 14.704H29.6364L33.0684 23.992L36.5484 14.704H40.1244ZM45.4397 28.216C44.1597 28.216 43.0077 27.936 41.9837 27.376C40.9597 26.8 40.1517 25.992 39.5597 24.952C38.9837 23.912 38.6957 22.712 38.6957 21.352C38.6957 19.992 38.9917 18.792 39.5837 17.752C40.1917 16.712 41.0157 15.912 42.0557 15.352C43.0957 14.776 44.2557 14.488 45.5357 14.488C46.8157 14.488 47.9757 14.776 49.0157 15.352C50.0557 15.912 50.8717 16.712 51.4637 17.752C52.0717 18.792 52.3757 19.992 52.3757 21.352C52.3757 22.712 52.0637 23.912 51.4397 24.952C50.8317 25.992 49.9997 26.8 48.9437 27.376C47.9037 27.936 46.7357 28.216 45.4397 28.216ZM45.4397 25.288C46.0477 25.288 46.6157 25.144 47.1437 24.856C47.6877 24.552 48.1197 24.104 48.4397 23.512C48.7597 22.92 48.9197 22.2 48.9197 21.352C48.9197 20.088 48.5837 19.12 47.9117 18.448C47.2557 17.76 46.4477 17.416 45.4877 17.416C44.5277 17.416 43.7197 17.76 43.0637 18.448C42.4237 19.12 42.1037 20.088 42.1037 21.352C42.1037 22.616 42.4157 23.592 43.0397 24.28C43.6797 24.952 44.4797 25.288 45.4397 25.288ZM59.8084 14.512C61.3924 14.512 62.6724 15.016 63.6484 16.024C64.6244 17.016 65.1124 18.408 65.1124 20.2V28H61.7524V20.656C61.7524 19.6 61.4884 18.792 60.9604 18.232C60.4324 17.656 59.7124 17.368 58.8004 17.368C57.8724 17.368 57.1364 17.656 56.5924 18.232C56.0644 18.792 55.8004 19.6 55.8004 20.656V28H52.4404V14.704H55.8004V16.36C56.2484 15.784 56.8164 15.336 57.5044 15.016C58.2084 14.68 58.9764 14.512 59.8084 14.512ZM71.1156 14.488C72.1076 14.488 72.9796 14.688 73.7316 15.088C74.4836 15.472 75.0756 15.976 75.5076 16.6V14.704H78.8916V28.096C78.8916 29.328 78.6436 30.424 78.1476 31.384C77.6516 32.36 76.9076 33.128 75.9156 33.688C74.9236 34.264 73.7236 34.552 72.3156 34.552C70.4276 34.552 68.8756 34.112 67.6596 33.232C66.4596 32.352 65.7796 31.152 65.6196 29.632H68.9556C69.1316 30.24 69.5076 30.72 70.0836 31.072C70.6756 31.44 71.3876 31.624 72.2196 31.624C73.1956 31.624 73.9876 31.328 74.5956 30.736C75.2036 30.16 75.5076 29.28 75.5076 28.096V26.032C75.0756 26.656 74.4756 27.176 73.7076 27.592C72.9556 28.008 72.0916 28.216 71.1156 28.216C69.9956 28.216 68.9716 27.928 68.0436 27.352C67.1156 26.776 66.3796 25.968 65.8356 24.928C65.3076 23.872 65.0436 22.664 65.0436 21.304C65.0436 19.96 65.3076 18.768 65.8356 17.728C66.3796 16.688 67.1076 15.888 68.0196 15.328C68.9476 14.768 69.9796 14.488 71.1156 14.488ZM75.5076 21.352C75.5076 20.536 75.3476 19.84 75.0276 19.264C74.7076 18.672 74.2756 18.224 73.7316 17.92C73.1876 17.6 72.6036 17.44 71.9796 17.44C71.3556 17.44 70.7796 17.592 70.2516 17.896C69.7236 18.2 69.2916 18.648 68.9556 19.24C68.6356 19.816 68.4756 20.504 68.4756 21.304C68.4756 22.104 68.6356 22.808 68.9556 23.416C69.2916 24.008 69.7236 24.464 70.2516 24.784C70.7956 25.104 71.3716 25.264 71.9796 25.264C72.6036 25.264 73.1876 25.112 73.7316 24.808C74.2756 24.488 74.7076 24.04 75.0276 23.464C75.3476 22.872 75.5076 22.168 75.5076 21.352ZM81.4772 13.12C80.8692 13.12 80.3652 12.936 79.9652 12.568C79.5812 12.184 79.3892 11.712 79.3892 11.152C79.3892 10.592 79.5812 10.128 79.9652 9.76C80.3652 9.376 80.8692 9.184 81.4772 9.184C82.0692 9.184 82.5572 9.376 82.9412 9.76C83.3252 10.128 83.5172 10.592 83.5172 11.152C83.5172 11.712 83.3252 12.184 82.9412 12.568C82.5572 12.936 82.0692 13.12 81.4772 13.12ZM83.1332 30.184C83.1332 31.656 82.7652 32.712 82.0292 33.352C81.3092 34.008 80.2692 34.336 78.9092 34.336H77.4212V31.48H78.3812C78.8932 31.48 79.2532 31.376 79.4612 31.168C79.6692 30.976 79.7732 30.656 79.7732 30.208V14.704H83.1332V30.184ZM85.7569 13.12C85.1649 13.12 84.6689 12.936 84.2689 12.568C83.8849 12.184 83.6929 11.712 83.6929 11.152C83.6929 10.592 83.8849 10.128 84.2689 9.76C84.6689 9.376 85.1649 9.184 85.7569 9.184C86.3489 9.184 86.8369 9.376 87.2209 9.76C87.6209 10.128 87.8209 10.592 87.8209 11.152C87.8209 11.712 87.6209 12.184 87.2209 12.568C86.8369 12.936 86.3489 13.12 85.7569 13.12ZM87.4129 14.704V28H84.0529V14.704H87.4129ZM90.7873 21.352C90.7873 19.976 91.0673 18.776 91.6273 17.752C92.1873 16.712 92.9633 15.912 93.9553 15.352C94.9473 14.776 96.0833 14.488 97.3633 14.488C99.0113 14.488 100.371 14.904 101.443 15.736C102.531 16.552 103.259 17.704 103.627 19.192H100.003C99.8113 18.616 99.4833 18.168 99.0193 17.848C98.5713 17.512 98.0113 17.344 97.3393 17.344C96.3793 17.344 95.6193 17.696 95.0593 18.4C94.4993 19.088 94.2193 20.072 94.2193 21.352C94.2193 22.616 94.4993 23.6 95.0593 24.304C95.6193 24.992 96.3793 25.336 97.3393 25.336C98.6993 25.336 99.5873 24.728 100.003 23.512H103.627C103.259 24.952 102.531 26.096 101.443 26.944C100.355 27.792 98.9953 28.216 97.3633 28.216C96.0833 28.216 94.9473 27.936 93.9553 27.376C92.9633 26.8 92.1873 26 91.6273 24.976C91.0673 23.936 90.7873 22.728 90.7873 21.352ZM107.049 10.24V28H103.689V10.24H107.049ZM120.521 14.704V28H117.137V26.32C116.705 26.896 116.137 27.352 115.433 27.688C114.745 28.008 113.993 28.168 113.177 28.168C112.137 28.168 111.217 27.952 110.417 27.52C109.617 27.072 108.985 26.424 108.521 25.576C108.073 24.712 107.849 23.688 107.849 22.504V14.704H111.209V22.024C111.209 23.08 111.473 23.896 112.001 24.472C112.529 25.032 113.249 25.312 114.161 25.312C115.089 25.312 115.817 25.032 116.345 24.472C116.873 23.896 117.137 23.08 117.137 22.024V14.704H120.521ZM124.796 16.648C125.228 16.008 125.82 15.488 126.572 15.088C127.34 14.688 128.212 14.488 129.188 14.488C130.324 14.488 131.348 14.768 132.26 15.328C133.188 15.888 133.916 16.688 134.444 17.728C134.988 18.752 135.26 19.944 135.26 21.304C135.26 22.664 134.988 23.872 134.444 24.928C133.916 25.968 133.188 26.776 132.26 27.352C131.348 27.928 130.324 28.216 129.188 28.216C128.196 28.216 127.324 28.024 126.572 27.64C125.836 27.24 125.244 26.728 124.796 26.104V28H121.436V10.24H124.796V16.648ZM131.828 21.304C131.828 20.504 131.66 19.816 131.324 19.24C131.004 18.648 130.572 18.2 130.028 17.896C129.5 17.592 128.924 17.44 128.3 17.44C127.692 17.44 127.116 17.6 126.572 17.92C126.044 18.224 125.612 18.672 125.276 19.264C124.956 19.856 124.796 20.552 124.796 21.352C124.796 22.152 124.956 22.848 125.276 23.44C125.612 24.032 126.044 24.488 126.572 24.808C127.116 25.112 127.692 25.264 128.3 25.264C128.924 25.264 129.5 25.104 130.028 24.784C130.572 24.464 131.004 24.008 131.324 23.416C131.66 22.824 131.828 22.12 131.828 21.304Z" fill="#3C3C3C"/>
</g>
<defs>
<filter id="filter0_d_13_2" x="3.65601" y="9.184" width="132.604" height="27.368" filterUnits="userSpaceOnUse" color-interpolation-filters="sRGB">
<feFlood flood-opacity="0" result="BackgroundImageFix"/>
<feColorMatrix in="SourceAlpha" type="matrix" values="0 0 0 0 0 0 0 0 0 0 0 0 0 0 0 0 0 0 127 0" result="hardAlpha"/>
<feOffset dy="1"/>
<feGaussianBlur stdDeviation="0.5"/>
<feComposite in2="hardAlpha" operator="out"/>
<feColorMatrix type="matrix" values="0 0 0 0 0 0 0 0 0 0 0 0 0 0 0 0 0 0 0.1 0"/>
<feBlend mode="normal" in2="BackgroundImageFix" result="effect1_dropShadow_13_2"/>
<feBlend mode="normal" in="SourceGraphic" in2="effect1_dropShadow_13_2" result="shape"/>
</filter>
</defs>
</svg>
