<svg xmlns="http://www.w3.org/2000/svg" width="488" height="489" fill="none" viewBox="0 0 488 489"><path fill="#012967" d="M108.5 289c-2.054-4.522 2.5-5 3.5-4.5.532.266 27.235 7.344 54 9.5 23.536 1.896 43.62.411 49.5.5 8.835.134 15.5-9.833 15.5-14l4-85c0-3.333 1.1-10.6 5.5-13 4.4-2.4 6.5 4.667 7 8.5l2 89.5c.113 3.178 1.039 9.813 11.5 10 65.5-2 110.5-21 114-22s18 1.5 4 14c-15.2 9.6-91.667 30.333-128 39.5 1.833 46 5.7 140.6 6.5 151 .8 10.4 5 14.333 7 15-20 .333-58.2.8-51 0 5.2-2 6.167-6.5 6-8.5 2.333-36.333 7.5-118.7 9.5-157.5-47.701-6.743-78.143-12.932-96-19-17.893-6.081-23.155-11.038-24.5-14Z"/><path fill="#0186D1" d="M177.136 0c-36.81 31.167-1.996 82.665 19 81.5 14.833-15.667 31.8-53.9-19-81.5ZM166.544 270.932c47.411 8.862 65.359-50.652 51.199-66.197-21.515-1.609-61.875 9.378-51.199 66.197ZM76.448 390.591c47.511-8.312 43.469-70.342 24.759-79.939-20.715 6.031-54.667 30.462-24.759 79.939ZM83.542 243.311c1.25-48.216-60.354-56.522-73.463-40.08 1.816 21.498 19.049 59.612 73.463 40.08ZM369.47 309.068c-31.102 36.864 11.806 81.841 32.314 77.195 12.015-17.919 22.375-58.445-32.314-77.195Z"/><path fill="#012967" d="M326.681 321.733c-46.458 12.964-36.309 74.291-16.742 81.994 20.017-8.048 51.39-35.713 16.742-81.994ZM154.944 408.552c39.772-27.285 10.344-82.039-10.662-83.004-16.341 14.087-37.087 50.408 10.662 83.004ZM21.451 324.014c45.61 15.689 72.054-40.567 60.314-58.013-21.05-4.733-62.58.244-60.314 58.013ZM91.118 196.721c36.994-30.948 2.487-82.651-18.515-81.612-14.926 15.578-32.12 53.71 18.515 81.612ZM176.805 120.31c-40.123 26.768-80-20.918-73.081-40.775 19.155-9.928 60.588-15.673 73.081 40.775ZM258.472 86.585c42.151-23.446 17.972-80.712-2.851-83.637-17.588 12.496-41.64 46.718 2.851 83.637ZM241.118 167.721c36.994-30.948 2.487-82.651-18.515-81.612-14.926 15.578-32.12 53.71 18.515 81.612ZM335.022 262.504c12.943-46.463-44.789-69.508-61.504-56.749-3.47 21.294 3.973 62.455 61.504 56.749ZM363.922 246.301c46.533-12.692 36.743-74.077 17.222-81.894-20.065 7.93-51.599 35.412-17.222 81.894ZM419.88 213.862c47.282-9.526 41.652-71.432 22.702-80.547-20.553 6.56-53.868 31.854-22.702 80.547ZM406.786 103.041c-34.964-33.225-82.396 6.953-78.968 27.7 17.178 13.052 57.022 25.786 78.968-27.7ZM335.449 161.599c-26.989-39.974-81.96-10.953-83.081 10.045 13.965 16.446 50.132 37.461 83.081-10.045ZM216.319 170.702c-12.949-46.462-74.279-36.332-81.988-16.768 8.041 20.02 35.697 51.402 81.988 16.768ZM129.602 188.797c41.655 24.314 16.295 81.067-4.585 83.56-17.324-12.858-40.662-47.572 4.585-83.56ZM401.908 288.023c-6.135 47.84 54.309 62.354 69.018 47.326.375-21.571-12.903-61.237-69.018-47.326Z"/><path fill="#0186D1" d="M399.925 250.247c18.444-44.566 78.111-27.131 83.41-6.782-10.391 18.907-41.622 46.734-83.41 6.782ZM343.548 39.076c-48.004-4.684-60.682 56.17-45.216 70.418 21.573-.278 60.818-14.75 45.216-70.418Z"/></svg>